<?xml version="1.0" standalone="no"?><!DOCTYPE svg PUBLIC "-//W3C//DTD SVG 1.1//EN" "http://www.w3.org/Graphics/SVG/1.1/DTD/svg11.dtd"><svg t="1497367127751" class="icon" style="" viewBox="0 0 1024 1024" version="1.1" xmlns="http://www.w3.org/2000/svg" p-id="1447" xmlns:xlink="http://www.w3.org/1999/xlink" width="200" height="200"><defs><style type="text/css"></style></defs><path d="M547.177174 447.505104l0 53.898561 105.461937 0c19.408025 0 35.153638 15.745612 35.153638 35.153638 0 19.408025-15.745612 35.153638-35.153638 35.153638l-105.461937 0 0 152.334477c0 19.408025-15.745612 35.153638-35.153638 35.153638-19.408025 0-35.153638-15.745612-35.153638-35.153638L476.869898 571.71094l-105.461937 0c-19.408025 0-35.153638-15.745612-35.153638-35.153638 0-19.408025 15.745612-35.153638 35.153638-35.153638l105.461937 0L476.869898 447.505104l-105.461937 0c-19.408025 0-35.153638-15.745612-35.153638-35.153638s15.745612-35.153638 35.153638-35.153638l48.38294 0-33.82641-60.008722c-9.520841-16.913205-3.570315-38.358633 13.365402-47.879474 17.027815-9.520841 38.358633-3.501754 47.879474 13.365402l52.777017 93.629447c0.160659 0.283456 0.137123 0.606821 0.288572 0.892323l19.304671 0 55.886845-95.071286c9.795087-16.730033 31.355125-22.382776 48.107671-12.496615 16.753569 9.841136 22.337751 31.377638 12.496615 48.107671l-34.954093 59.46023 51.523467 0c19.408025 0 35.153638 15.745612 35.153638 35.153638s-15.745612 35.153638-35.153638 35.153638L547.177174 447.50408zM816.508295 392.301827l0-210.535017c0-27.052123-22.017456-49.069579-49.069579-49.069579L256.561283 132.697231c-27.052123 0-49.069579 22.017456-49.069579 49.069579l0 660.465356c0 27.052123 22.017456 49.069579 49.069579 49.069579L629.02018 891.301745 629.02018 753.753019c0-19.408025 15.745612-35.153638 35.153638-35.153638l152.334477 0L816.508295 560.748261c0-19.408025 15.745612-35.153638 35.153638-35.153638s35.153638 15.745612 35.153638 35.153638l0 193.003735c0 0.841158-0.420579 1.545192-0.477884 2.368954-0.214894 3.13848-0.809435 6.15928-1.845021 9.125845-0.443092 1.266853-0.86367 2.477424-1.444908 3.673669-1.352811 2.808976-3.12927 5.355985-5.229095 7.755638-0.654916 0.747014-1.121544 1.602498-1.836835 2.291183-0.202615 0.194428-0.309038 0.455371-0.517793 0.64673l-187.488115 172.703387-0.168846-0.183172c-6.262634 5.762237-14.458293 9.474792-23.633257 9.474792L256.561283 961.609021c-65.822125 0-119.376854-53.55473-119.376854-119.376854L137.184429 181.76681c0-65.822125 53.55473-119.376854 119.376854-119.376854l510.878456 0c65.822125 0 119.376854 53.55473 119.376854 119.376854l0 210.535017c0 19.408025-15.745612 35.153638-35.153638 35.153638S816.508295 411.709853 816.508295 392.301827zM699.327456 846.260923l62.297858-57.354266-62.297858 0L699.327456 846.260923z" p-id="1448" fill="#e6e6e6"></path></svg>